<svg width="1600" height="1200" viewBox="0 0 1600 1200" fill="none" xmlns="http://www.w3.org/2000/svg">
  <rect width="1600" height="1200" fill="#F7F2EA"/>
  <rect x="92" y="92" width="1416" height="1016" rx="72" fill="#F2E4D4"/>
  <circle cx="820" cy="690" r="274" fill="#E7D3BB"/>
  <circle cx="820" cy="690" r="232" fill="#DCC8AF"/>
  <circle cx="820" cy="690" r="184" fill="#EDE3D5"/>
  <circle cx="820" cy="690" r="122" fill="#FFF9F2"/>
  <path d="M652 560C664 430 738 352 820 352C902 352 976 430 988 560L1012 720C1026 866 928 966 820 966C712 966 614 866 628 720L652 560Z" fill="#8A4E2D"/>
  <path d="M692 530C704 432 756 388 820 388C884 388 936 432 948 530L970 690C982 804 910 882 820 882C730 882 658 804 670 690L692 530Z" fill="#B66A3C"/>
  <ellipse cx="820" cy="468" rx="150" ry="48" fill="#D0824D"/>
  <path d="M490 296C584 230 690 214 800 248" stroke="#75825B" stroke-width="18" stroke-linecap="round"/>
  <path d="M842 242C944 220 1048 248 1144 332" stroke="#75825B" stroke-width="18" stroke-linecap="round"/>
  <path d="M580 1002C670 956 752 936 826 942C900 948 984 978 1076 1034" stroke="#8A4E2D" stroke-width="14" stroke-linecap="round" opacity="0.4"/>
  <circle cx="1220" cy="272" r="118" fill="#F0C98A" fill-opacity="0.36"/>
</svg>
