<svg width="1600" height="1200" viewBox="0 0 1600 1200" fill="none" xmlns="http://www.w3.org/2000/svg">
  <rect width="1600" height="1200" fill="#F7F2EA"/>
  <rect x="96" y="96" width="1408" height="1008" rx="72" fill="#241610"/>
  <rect x="172" y="170" width="1256" height="860" rx="56" fill="#1A100A"/>
  <circle cx="1182" cy="292" r="112" fill="#B66A3C"/>
  <circle cx="1182" cy="292" r="150" fill="#B66A3C" fill-opacity="0.16"/>
  <rect x="234" y="250" width="496" height="594" rx="32" fill="#F7F2EA"/>
  <rect x="286" y="302" width="392" height="490" rx="20" fill="#EDE3D5"/>
  <path d="M868 760H1320" stroke="#8A4E2D" stroke-width="18" stroke-linecap="round"/>
  <path d="M902 760V550H978V760" stroke="#B66A3C" stroke-width="22" stroke-linecap="round"/>
  <path d="M1008 760V488H1092V760" stroke="#B66A3C" stroke-width="22" stroke-linecap="round"/>
  <path d="M1124 760V430H1208V760" stroke="#B66A3C" stroke-width="22" stroke-linecap="round"/>
  <path d="M1238 760V570H1312V760" stroke="#B66A3C" stroke-width="22" stroke-linecap="round"/>
  <rect x="358" y="596" width="248" height="28" rx="14" fill="#DCC8AF"/>
  <rect x="394" y="446" width="176" height="174" rx="86" fill="#B66A3C"/>
  <path d="M416 454C425 398 462 370 482 370C502 370 539 398 548 454L560 532C567 580 532 620 482 620C432 620 397 580 404 532L416 454Z" fill="#D0824D"/>
  <ellipse cx="482" cy="424" rx="78" ry="26" fill="#C87B4E"/>
  <path d="M370 404C428 326 500 296 582 320" stroke="#75825B" stroke-width="18" stroke-linecap="round"/>
  <path d="M512 342C560 298 616 286 672 306" stroke="#75825B" stroke-width="14" stroke-linecap="round"/>
  <path d="M850 872C924 826 1014 814 1122 836C1230 858 1306 850 1360 814" stroke="#EDE3D5" stroke-width="14" stroke-linecap="round"/>
</svg>
