<svg width="1600" height="1200" viewBox="0 0 1600 1200" fill="none" xmlns="http://www.w3.org/2000/svg">
  <rect width="1600" height="1200" fill="#F7F2EA"/>
  <rect x="108" y="108" width="1384" height="984" rx="72" fill="#F2E4D4"/>
  <rect x="260" y="184" width="720" height="760" rx="36" fill="#FFF9F2"/>
  <rect x="340" y="264" width="560" height="600" rx="24" fill="#F7F2EA"/>
  <rect x="1068" y="224" width="244" height="618" rx="122" fill="#E6D4BF"/>
  <path d="M1116 384C1123 309 1177 252 1249 252C1321 252 1375 309 1382 384L1402 592C1411 696 1330 780 1225 780H1273C1168 780 1087 696 1096 592L1116 384Z" fill="#B66A3C"/>
  <path d="M1150 362C1156 307 1195 280 1249 280C1303 280 1342 307 1348 362L1366 550C1374 622 1319 684 1249 684C1179 684 1124 622 1132 550L1150 362Z" fill="#8A4E2D"/>
  <ellipse cx="1249" cy="308" rx="112" ry="38" fill="#C87B4E"/>
  <rect x="564" y="792" width="280" height="40" rx="20" fill="#DCC8AF"/>
  <rect x="604" y="642" width="200" height="178" rx="98" fill="#B66A3C"/>
  <path d="M632 650C642 585 691 548 704 548H704C717 548 766 585 776 650L788 726C796 777 757 820 704 820C651 820 612 777 620 726L632 650Z" fill="#D0824D"/>
  <ellipse cx="704" cy="620" rx="88" ry="30" fill="#C87B4E"/>
  <path d="M512 388C564 308 650 278 736 296" stroke="#75825B" stroke-width="18" stroke-linecap="round"/>
  <path d="M770 330C846 278 924 288 1004 364" stroke="#75825B" stroke-width="18" stroke-linecap="round"/>
  <path d="M450 422C372 410 320 374 292 312" stroke="#DCC8AF" stroke-width="12" stroke-linecap="round"/>
  <circle cx="1260" cy="300" r="122" fill="url(#glow)" opacity="0.35"/>
  <defs>
    <radialGradient id="glow" cx="0" cy="0" r="1" gradientUnits="userSpaceOnUse" gradientTransform="translate(1260 300) rotate(90) scale(122)">
      <stop stop-color="#F0C98A"/>
      <stop offset="1" stop-color="#F0C98A" stop-opacity="0"/>
    </radialGradient>
  </defs>
</svg>
